<?xml version="1.0" encoding="utf-8"?>
<!-- Generator: Adobe Illustrator 22.1.0, SVG Export Plug-In . SVG Version: 6.00 Build 0)  -->
<svg version="1.1" id="Layer_1" xmlns="http://www.w3.org/2000/svg" xmlns:xlink="http://www.w3.org/1999/xlink" x="0px" y="0px"
	 viewBox="0 0 512 512" style="enable-background:new 0 0 512 512;" xml:space="preserve">
<g>
	<path d="M296.9,216.1c4,4,4,10.8,0,14.8l-8.8,8.8c-4,4.3-10.8,4.3-15.1,0l-9.5-9.5c-4-4.3-4-10.8,0-15.1l8.8-8.8c4-4,10.8-4,15.1,0
		L296.9,216.1z M269.5,198.2c2.7-2.7,2.7-7.1,0-9.5c-2.5-2.7-6.8-2.7-9.5,0c-2.5,2.5-2.5,6.8,0,9.5
		C262.8,200.7,267.1,200.7,269.5,198.2z M245.9,203c-2.7,2.5-2.7,6.8,0,9.3c2.5,2.7,6.8,2.7,9.5,0c2.5-2.5,2.5-6.8,0-9.3
		C252.7,200.3,248.5,200.3,245.9,203z M311.7,190.9c-18.1-13.1-30.7-39.2-10.8-61.8c19.6-22.6,36.9-15.6,54.3,0.7
		c10.8,10.3,26.6,22.6,15.6,43.7C359.4,194.9,329.9,203.7,311.7,190.9L311.7,190.9z M355,150.6c-8.1-9.1-21.1,6.3-14.1,14.6
		C347.6,173.3,370,167.4,355,150.6z M481,256c0,124.3-100.7,225-225,225S31,380.3,31,256S131.7,31,256,31S481,131.7,481,256z
		 M420.9,294.6c2.3-14.6-18.3-15.1-22.9-23.3c-12.3-21.9-25.1-33.4-49.4-27.6c10.5-7.3,21.3-5.5,21.3-5.5c0.3-5.8,0-11.8-8.5-22.6
		c3.5-11.3,0.3-20.3,0.3-20.3c14.1-7.8,24.3-22.1,26.4-39.2c3.3-28.1-17.1-53.7-45.2-57c-20.1-2.3-39.6,7-49.3,23.3
		c-21,36.4,1.3,64.3,20.3,73.9c-13.1-1.3-31.1-10.8-36.4-31.1c-6-23.3,2.5-45.2,8.1-55.7c0,0-4-5.3-7.3-8.1c0,0-12.5,0-22.3,4.8
		C266.9,92.4,279,93.1,279,93.1c0-5.8-0.5-13.5-3.3-19.6c-4.9-10-21.6-11.7-28.8,2.5c0.1-0.2,0.3-0.4,0.4-0.5
		c-4.5,10.8-1,50.7,15.3,79.1c-2.3,1.3-8.3,5.5-11.8,9.1c-19.6,8.8-51,54.7-51,54.7c-25.6,9.8-70,46.2-64.1,72.3
		c0.3,2.7,1.3,5,2.7,6.8c-2.5,2-5,4.5-7.5,7.5c-10.8,12.5-4.8,31.9,16.1,22.1c14.3-6.5,26.9-18.3,32.9-27.6c0,0-5-4.5-14.8-4
		c25.1-6,31.1-8.5,41.9-8.3c7.3,3.5,7.3-31.1,7.3-31.1c0-13.3-2-28.1-10.1-37.7c11.3,11.1,26.4,29.7,25.4,55
		c-0.7,16.6-13.8,20.9-13.8,20.9c-8.3,15.1-39.2,59.8-27.6,96.2c0,0-8.8-13.5-9.3-20.1c-15.8,17.6-42.2,47.4-22.3,58.5
		c24.1,13.3,98.7-80.4,114.5-129.1c31.4-18.9,50.3-42.9,58-59C349.2,280.6,415.7,326.9,420.9,294.6L420.9,294.6z"/>
</g>
</svg>
