<?xml version="1.0" encoding="UTF-8" standalone="no"?>
<!DOCTYPE svg PUBLIC "-//W3C//DTD SVG 1.1//EN" "http://www.w3.org/Graphics/SVG/1.1/DTD/svg11.dtd">
<svg xmlns="http://www.w3.org/2000/svg" xmlns:xlink="http://www.w3.org/1999/xlink" width="100%" height="100%" viewBox="0 0 504 140" version="1.1" xml:space="preserve" style="fill-rule:evenodd;clip-rule:evenodd;stroke-linejoin:round;stroke-miterlimit:1.41421;">
  <g>
    <path d="M235.832,71.564l-7.98,-0.001c-1.213,0.001 -2.197,0.987 -2.197,2.204l0,15.327l-0.157,0.132c-4.696,3.961 -10.635,6.139 -16.72,6.139c-14.355,0 -26.034,-11.679 -26.034,-26.036c0,-14.358 11.679,-26.035 26.034,-26.035c5.582,0 10.92,1.767 15.437,5.112c0.877,0.65 2.094,0.561 2.867,-0.21l5.689,-5.69c0.444,-0.442 0.675,-1.055 0.64,-1.681c-0.034,-0.627 -0.336,-1.206 -0.829,-1.597c-6.759,-5.363 -15.213,-8.314 -23.804,-8.314c-21.18,0 -38.414,17.233 -38.414,38.415c0,21.183 17.233,38.414 38.414,38.414c10.936,0 21.397,-4.704 28.697,-12.913c0.358,-0.403 0.557,-0.921 0.557,-1.46l0,-19.603c0,-1.217 -0.985,-2.204 -2.2,-2.204" style="fill:#fff;fill-rule:nonzero;"/>
    <path d="M502.795,34.445c-0.408,-0.616 -1.101,-0.989 -1.838,-0.989l-8.684,0c-0.879,0 -1.673,0.522 -2.022,1.329l-24.483,56.839l-24.92,-56.852c-0.352,-0.798 -1.142,-1.316 -2.012,-1.316l-8.713,0c-0.744,0 -1.44,0.374 -1.844,0.995c-0.407,0.623 -0.475,1.408 -0.174,2.09l30.186,68.858c0.353,0.799 1.143,1.317 2.018,1.317l10.992,0c0.879,0 1.672,-0.526 2.021,-1.329l29.655,-68.861c0.289,-0.68 0.221,-1.461 -0.182,-2.081" style="fill:#fff;fill-rule:nonzero;"/>
    <path d="M388.683,34.771c-0.353,-0.797 -1.142,-1.316 -2.017,-1.316l-10.988,0c-0.879,0 -1.672,0.522 -2.021,1.329l-29.655,68.861c-0.293,0.675 -0.226,1.461 0.182,2.077c0.407,0.62 1.096,0.994 1.838,0.994l8.684,0c0.879,0 1.673,-0.527 2.022,-1.33l24.478,-56.842l24.921,56.855c0.352,0.798 1.142,1.317 2.012,1.317l8.717,0c0.744,0 1.44,-0.374 1.843,-0.994c0.408,-0.624 0.471,-1.41 0.174,-2.093l-30.19,-68.858Z" style="fill:#fff;fill-rule:nonzero;"/>
    <path d="M309.196,81.525l0.477,-0.229c8.674,-4.192 14.279,-13.087 14.279,-22.667c0,-13.881 -11.295,-25.174 -25.176,-25.174l-31.863,0c-1.214,0 -2.2,0.988 -2.2,2.202l0,68.855c0,1.218 0.986,2.204 2.2,2.204l7.978,0c1.215,0 2.2,-0.986 2.2,-2.204l0,-58.679l21.685,0c7.058,0 12.799,5.738 12.799,12.796c0,5.885 -3.996,10.989 -9.728,12.408c-1.032,0.261 -2.065,0.393 -3.071,0.393l-7.978,0c-0.828,0 -1.584,0.466 -1.958,1.205c-0.378,0.74 -0.305,1.625 0.187,2.296l22.62,30.884c0.412,0.566 1.069,0.901 1.771,0.901l9.915,0c0.827,0 1.587,-0.467 1.96,-1.207c0.378,-0.742 0.302,-1.63 -0.187,-2.296l-15.909,-21.688Z" style="fill:#fff;fill-rule:nonzero;"/>
    <path d="M107.191,80.969c-7.255,-4.795 -11.399,-8.845 -15.011,-16.109c-2.469,4.977 -8.236,12.376 -17.962,18.198c-4.855,15.106 -27.954,44.015 -35.43,39.916c-2.213,-1.212 -2.633,-2.808 -2.133,-4.456c0.536,-4.129 9.078,-13.62 9.078,-13.62c0,0 0.18,1.992 2.913,6.187c-3.609,-11.205 5.965,-25.031 8.5,-29.738c3.985,-1.27 4.274,-6.387 4.274,-6.387c0.255,-7.909 -3.278,-13.635 -6.701,-17.059c2.459,3.002 3.256,7.539 3.372,11.694l0,0.023c0.012,0.469 0.012,0.93 0.011,1.39c-0.117,3.439 -1.158,8.19 -3.383,8.19l0.005,0.03c-2.288,-0.098 -5.114,0.39 -7.638,1.18l-5.582,1.334c0,0 2.977,-0.136 4.584,1.252c-1.79,2.915 -5.768,6.533 -10.205,8.588c-6.458,2.994 -8.313,-2.964 -5.035,-6.838c0.805,-0.947 1.618,-1.745 2.387,-2.399c-0.495,-0.513 -0.807,-1.198 -0.889,-2.068c-0.001,-0.005 -0.004,-0.009 -0.005,-0.013c-0.45,-1.977 -0.202,-4.543 2.595,-8.623c0.552,-0.863 1.215,-1.748 2.008,-2.647c0.025,-0.031 0.046,-0.059 0.072,-0.089c0.034,-0.041 0.072,-0.081 0.108,-0.121c0.02,-0.023 0.038,-0.045 0.059,-0.068c0.2,-0.228 0.413,-0.45 0.639,-0.663c3.334,-3.414 8.599,-6.966 16.897,-10.152c9.675,-14.223 13.22,-16.89 13.22,-16.89c1.071,-1.096 2.942,-2.458 3.63,-2.805c-5.052,-8.781 -6.073,-21.158 -4.749,-24.493c-0.108,0.18 -0.205,0.365 -0.287,0.556c0.49,-1.143 0.818,-1.509 1.329,-2.111c1.38,-1.632 6.057,-2.488 7.736,0.971c0.895,1.844 1.063,4.232 1.034,6.023c-3.704,-0.193 -7.063,4.036 -7.063,4.036c0,0 3.068,-1.448 6.879,-1.473c0,0 1.015,0.883 2.282,2.542c-1.71,3.213 -4.523,10.021 -2.487,17.168c0.339,1.408 0.849,2.619 1.483,3.648c0.023,0.045 0.044,0.089 0.069,0.135c0.05,0.066 0.096,0.122 0.144,0.183c3.368,5.072 9.542,5.665 9.542,5.665c-2.906,-1.45 -5.274,-3.76 -6.816,-6.56c-0.801,-1.498 -1.291,-2.762 -1.592,-3.761c-1.635,-6.313 0.772,-9.999 2.149,-12.471c3.17,-4.917 8.944,-7.893 15.151,-7.185c8.713,0.995 14.968,8.862 13.973,17.571c-0.608,5.321 -3.781,9.723 -8.142,12.117c1.049,2.839 -0.072,6.28 -0.072,6.28c2.641,3.323 2.757,5.238 2.666,7.017c-3.357,-0.565 -6.618,1.701 -6.618,1.701c0,0 6.476,-1.546 10.238,1.81c2.447,2.631 4.079,5.009 5.051,6.766c1.393,2.505 7.86,2.683 7.123,7.188c-0.736,4.499 -5.669,4.542 -13.401,-0.56m-37.62,-80.969c-38.424,0 -69.571,31.147 -69.571,69.567c0,38.422 31.147,69.573 69.571,69.573c38.421,0 69.569,-31.151 69.569,-69.573c0,-38.42 -31.148,-69.567 -69.569,-69.567" style="fill:#fff;fill-rule:nonzero;"/>
    <path d="M73.796,51.693c0.814,-0.814 0.814,-2.134 0,-2.947c-0.814,-0.814 -2.133,-0.814 -2.947,0c-0.814,0.813 -0.814,2.133 0,2.947c0.814,0.813 2.133,0.813 2.947,0" style="fill:#fff;fill-rule:nonzero;"/>
    <path d="M66.445,53.149c-0.814,0.814 -0.814,2.133 0,2.947c0.813,0.814 2.133,0.814 2.947,0c0.813,-0.814 0.813,-2.133 0,-2.947c-0.814,-0.813 -2.134,-0.813 -2.947,0" style="fill:#fff;fill-rule:nonzero;"/>
    <path d="M79.231,54.233c-1.274,-1.274 -3.339,-1.273 -4.611,0l-2.713,2.712c-1.274,1.275 -1.274,3.339 0,4.612l2.978,2.978c1.274,1.274 3.338,1.274 4.611,0l2.712,-2.712c1.274,-1.274 1.274,-3.339 0,-4.612l-2.977,-2.978Z" style="fill:#fff;fill-rule:nonzero;"/>
    <path d="M95.759,41.445c-2.15,-2.578 1.87,-7.257 4.391,-4.463c4.646,5.148 -2.237,7.041 -4.391,4.463m9.246,2.687c3.441,-6.553 -1.427,-10.381 -4.774,-13.523c-5.359,-5.038 -10.705,-7.216 -16.811,-0.241c-6.102,6.977 -2.225,15.068 3.357,19.061c5.583,3.994 14.781,1.255 18.228,-5.297" style="fill:#fff;fill-rule:nonzero;"/>
  </g>
</svg>